<?xml version="1.0" encoding="UTF-8"?>
<svg width="583px" height="282px" viewBox="0 0 583 282" version="1.1" xmlns="http://www.w3.org/2000/svg" xmlns:xlink="http://www.w3.org/1999/xlink">
    <!-- Generator: Sketch 43.1 (39012) - http://www.bohemiancoding.com/sketch -->
    <title>Group 2</title>
    <desc>Created with Sketch.</desc>
    <defs></defs>
    <g id="Page-1" stroke="none" stroke-width="1" fill="none" fill-rule="evenodd">
        <g id="Logo---Fundo-Escuro" transform="translate(-165.000000, -105.000000)">
            <g id="Group-2" transform="translate(165.000000, 92.000000)">
                <path d="M81.184,42.592 C80.7999981,50.4160391 80.608,56.5599777 80.608,61.024 L80.608,64.912 C80.608,65.6800038 79.9360067,66.064 78.592,66.064 C77.391994,66.064 76.7440005,65.6800038 76.648,64.912 C76.0239969,57.711964 74.308014,52.5280158 71.5,49.36 C68.691986,46.1919842 64.4560283,44.608 58.792,44.608 C48.9039506,44.608 43.96,49.9839462 43.96,60.736 C43.96,64.4800187 44.8839908,68.1159824 46.732,71.644 C48.5800092,75.1720176 52.5519695,79.9599698 58.648,86.008 C65.3680336,92.6320331 69.7719896,98.0319791 71.86,102.208 C73.9480104,106.384021 74.992,110.775977 74.992,115.384 C74.992,123.976043 71.8000319,130.995973 65.416,136.444 C59.0319681,141.892027 50.8720497,144.616 40.936,144.616 C36.7119789,144.616 31.7200288,143.824008 25.96,142.24 C20.7279738,140.847993 16.408017,140.152 13,140.152 C13.8640043,128.487942 14.3439995,120.328023 14.44,115.672 C14.44,114.903996 15.2079923,114.52 16.744,114.52 C17.752005,114.52 18.3279993,114.903996 18.472,115.672 C19.8160067,124.600045 22.2639822,130.887982 25.816,134.536 C29.3680178,138.184018 34.7919635,140.008 42.088,140.008 C47.9920295,140.008 52.6599828,138.232018 56.092,134.68 C59.5240172,131.127982 61.24,126.32803 61.24,120.28 C61.24,116.631982 60.2320101,113.032018 58.216,109.48 C56.1999899,105.927982 51.9520324,101.056031 45.472,94.864 C38.7519664,88.4319678 34.3480104,83.320019 32.26,79.528 C30.1719896,75.735981 29.128,71.8720197 29.128,67.936 C29.128,59.9679602 31.9719716,53.3200266 37.66,47.992 C43.3480284,42.6639734 50.6799551,40 59.656,40 C62.9680166,40 66.7359789,40.4319957 70.96,41.296 C74.8960197,42.1600043 78.3039856,42.592 81.184,42.592 Z M130.072,83.704 C130.072,84.6640048 129.748003,85.5759957 129.1,86.44 C128.451997,87.3040043 127.816003,87.736 127.192,87.736 L112.648,87.304 L99.112,126.616 C98.1519952,129.688015 97.672,131.847994 97.672,133.096 C97.672,134.632008 98.1999947,135.4 99.256,135.4 C101.512011,135.4 106.023966,132.35203 112.792,126.256 C115.336013,123.903988 116.775998,122.728 117.112,122.728 C117.784003,122.728 118.383997,123.003997 118.912,123.556 C119.440003,124.108003 119.704,124.647997 119.704,125.176 C119.704,125.944004 117.592021,128.235981 113.368,132.052 C109.143979,135.868019 105.148019,138.915989 101.38,141.196 C97.6119812,143.476011 94.6000113,144.616 92.344,144.616 C87.0639736,144.616 84.424,141.928027 84.424,136.552 C84.424,134.007987 84.9999942,131.080017 86.152,127.768 L99.976,87.448 L88.888,87.736 C87.9279952,87.736 87.448,86.9680077 87.448,85.432 C87.448,84.5199954 87.7719968,83.6200044 88.42,82.732 C89.0680032,81.8439956 89.7039969,81.4 90.328,81.4 L101.992,81.4 L107.32,65.92 C107.560001,65.1999964 108.435992,64.6120023 109.948,64.156 C111.460008,63.6999977 112.983992,63.472 114.52,63.472 C115.864007,63.472 117.123994,63.675998 118.3,64.084 C119.476006,64.492002 120.064,64.9839971 120.064,65.56 L119.992,65.92 L114.664,81.4 L128.488,81.4 C129.544005,81.4 130.072,82.1679923 130.072,83.704 Z M193.072,79.384 L172.624,126.616 C171.183993,129.880016 170.464,132.231993 170.464,133.672 C170.464,134.824006 170.943995,135.4 171.904,135.4 C173.296007,135.4 176.415976,132.496029 181.264,126.688 C183.472011,124.047987 184.719999,122.728 185.008,122.728 C185.584003,122.728 186.111998,123.003997 186.592,123.556 C187.072002,124.108003 187.312,124.647997 187.312,125.176 C187.312,125.848003 185.560018,128.15198 182.056,132.088 C178.551982,136.02402 175.228016,139.095989 172.084,141.304 C168.939984,143.512011 166.288011,144.616 164.128,144.616 C159.327976,144.616 156.928,142.360023 156.928,137.848 C156.928,133.623979 158.94398,127.768037 162.976,120.28 C159.471982,126.808033 154.804029,132.495976 148.972,137.344 C143.139971,142.192024 138.064022,144.616 133.744,144.616 C131.295988,144.616 129.364007,143.680009 127.948,141.808 C126.531993,139.935991 125.824,137.368016 125.824,134.104 C125.824,127.815969 128.463974,120.604041 133.744,112.468 C139.024026,104.331959 145.503962,97.2160305 153.184,91.12 C160.864038,85.0239695 167.295974,81.976 172.48,81.976 C175.024013,81.976 177.087992,82.5039947 178.672,83.56 L180.4,79.384 C181.120004,77.7519918 183.615979,76.936 187.888,76.936 C191.392018,76.936 193.144,77.6079933 193.144,78.952 L193.072,79.384 Z M175.216,90.76 C175.216,87.8799856 174.160011,86.44 172.048,86.44 C167.96798,86.44 163.288026,88.7079773 158.008,93.244 C152.727974,97.7800227 148.10802,103.359967 144.148,109.984 C140.18798,116.608033 138.208,122.103978 138.208,126.472 C138.208,129.064013 138.615996,130.911994 139.432,132.016 C140.248004,133.120006 141.61599,133.672 143.536,133.672 C145.984012,133.672 149.763974,130.876028 154.876,125.284 C159.988026,119.691972 164.655979,113.344036 168.88,106.24 C173.104021,99.1359645 175.216,93.9760161 175.216,90.76 Z M252.76,86.152 C252.76,88.552012 252.088007,90.4719928 250.744,91.912 C249.399993,93.3520072 247.76801,94.072 245.848,94.072 C244.119991,94.072 242.464008,93.1840089 240.88,91.408 C239.535993,89.9199926 238.264006,89.176 237.064,89.176 C234.087985,89.176 229.63603,94.0479513 223.708,103.792 C217.77997,113.536049 211.672031,125.751927 205.384,140.44 C204.711997,142.072008 202.552018,142.888 198.904,142.888 C197.655994,142.888 196.516005,142.684002 195.484,142.276 C194.451995,141.867998 193.936,141.376003 193.936,140.8 L194.008,140.44 L209.128,96.088 C210.376006,92.3439813 211,89.9920048 211,89.032 C211,87.8799942 210.520005,87.304 209.56,87.304 C208.023992,87.304 205.28802,89.8959741 201.352,95.08 C199.43199,97.5760125 198.280002,98.824 197.896,98.824 C197.223997,98.824 196.648002,98.5480028 196.168,97.996 C195.687998,97.4439972 195.448,96.9040026 195.448,96.376 C195.448,95.7039966 197.031984,93.5320184 200.2,89.86 C203.368016,86.1879816 206.427985,83.3080104 209.38,81.22 C212.332015,79.1319896 214.887989,78.088 217.048,78.088 C222.040025,78.088 224.536,80.2479784 224.536,84.568 C224.536,86.968012 223.768008,90.3759779 222.232,94.792 L219.496,102.568 C228.616046,86.2479184 236.631965,78.088 243.544,78.088 C246.232013,78.088 248.439991,78.8199927 250.168,80.284 C251.896009,81.7480073 252.76,83.7039878 252.76,86.152 Z M297.4,83.704 C297.4,84.6640048 297.076003,85.5759957 296.428,86.44 C295.779997,87.3040043 295.144003,87.736 294.52,87.736 L279.976,87.304 L266.44,126.616 C265.479995,129.688015 265,131.847994 265,133.096 C265,134.632008 265.527995,135.4 266.584,135.4 C268.840011,135.4 273.351966,132.35203 280.12,126.256 C282.664013,123.903988 284.103998,122.728 284.44,122.728 C285.112003,122.728 285.711997,123.003997 286.24,123.556 C286.768003,124.108003 287.032,124.647997 287.032,125.176 C287.032,125.944004 284.920021,128.235981 280.696,132.052 C276.471979,135.868019 272.476019,138.915989 268.708,141.196 C264.939981,143.476011 261.928011,144.616 259.672,144.616 C254.391974,144.616 251.752,141.928027 251.752,136.552 C251.752,134.007987 252.327994,131.080017 253.48,127.768 L267.304,87.448 L256.216,87.736 C255.255995,87.736 254.776,86.9680077 254.776,85.432 C254.776,84.5199954 255.099997,83.6200044 255.748,82.732 C256.396003,81.8439956 257.031997,81.4 257.656,81.4 L269.32,81.4 L274.648,65.92 C274.888001,65.1999964 275.763992,64.6120023 277.276,64.156 C278.788008,63.6999977 280.311992,63.472 281.848,63.472 C283.192007,63.472 284.451994,63.675998 285.628,64.084 C286.804006,64.492002 287.392,64.9839971 287.392,65.56 L287.32,65.92 L281.992,81.4 L295.816,81.4 C296.872005,81.4 297.4,82.1679923 297.4,83.704 Z M360.544,82.408 L345.496,126.616 C344.247994,130.360019 343.624,132.711995 343.624,133.672 C343.624,134.824006 344.103995,135.4 345.064,135.4 C346.600008,135.4 349.33598,132.856025 353.272,127.768 C355.19201,125.271988 356.343998,124.024 356.728,124.024 C357.352003,124.024 357.915997,124.287997 358.42,124.816 C358.924003,125.344003 359.176,125.895997 359.176,126.472 C359.176,127.192004 357.592016,129.363982 354.424,132.988 C351.255984,136.612018 348.196015,139.45599 345.244,141.52 C342.291985,143.58401 339.736011,144.616 337.576,144.616 C335.223988,144.616 333.388007,144.052006 332.068,142.924 C330.747993,141.795994 330.088,140.24801 330.088,138.28 C330.088,135.831988 330.855992,132.376022 332.392,127.912 L337.144,113.944 C331.383971,123.688049 325.780027,131.235973 320.332,136.588 C314.883973,141.940027 309.976022,144.616 305.608,144.616 C303.015987,144.616 300.856009,143.740009 299.128,141.988 C297.399991,140.235991 296.536,137.944014 296.536,135.112 C296.536,132.039985 297.49599,128.056024 299.416,123.16 L310.936,96.088 C312.568008,92.1999806 313.384,89.8480041 313.384,89.032 C313.384,87.8799942 312.952004,87.304 312.088,87.304 C310.311991,87.304 307.240022,89.9679734 302.872,95.296 C300.90399,97.6480118 299.752002,98.824 299.416,98.824 C298.839997,98.824 298.336002,98.5600026 297.904,98.032 C297.471998,97.5039974 297.256,96.9520029 297.256,96.376 C297.256,95.5119957 298.923983,93.3040178 302.26,89.752 C305.596017,86.1999822 308.859984,83.3680106 312.052,81.256 C315.244016,79.1439894 317.991988,78.088 320.296,78.088 C322.408011,78.088 324.087994,78.5799951 325.336,79.564 C326.584006,80.5480049 327.208,81.8799916 327.208,83.56 C327.208,86.2480134 326.152011,90.0399755 324.04,94.936 L312.376,122.728 C311.031993,125.848016 310.36,128.487989 310.36,130.648 C310.36,133.336013 311.463989,134.68 313.672,134.68 C316.360013,134.68 320.271974,131.356033 325.408,124.708 C330.544026,118.059967 336.279968,109.048057 342.616,97.672 L347.944,82.408 C348.184001,81.6879964 349.047993,81.0760025 350.536,80.572 C352.024007,80.0679975 353.559992,79.816 355.144,79.816 C356.488007,79.816 357.735994,80.0319978 358.888,80.464 C360.040006,80.8960022 360.592,81.5439957 360.544,82.408 Z M425.92,98.536 C425.92,105.400034 424.048019,112.467964 420.304,119.74 C416.559981,127.012036 411.784029,132.975977 405.976,137.632 C400.167971,142.288023 394.528027,144.616 389.056,144.616 C384.495977,144.616 381.040012,142.552021 378.688,138.424 L369.616,165.208 C369.039997,166.936009 368.752,168.615992 368.752,170.248 C368.752,171.640007 369.315994,172.743996 370.444,173.56 C371.572006,174.376004 373.935982,175.095997 377.536,175.72 C378.016002,175.72 378.256,176.103996 378.256,176.872 C378.256,178.79201 377.680006,179.752 376.528,179.752 C365.727946,178.887996 354.448059,178.456 342.688,178.456 C342.207998,178.456 341.968,177.976005 341.968,177.016 C341.968,176.391997 342.159998,175.804003 342.544,175.252 C342.928002,174.699997 343.311998,174.424 343.696,174.424 C350.512034,173.943998 354.92799,170.872028 356.944,165.208 L382,91.336 C379.215986,92.6320065 376.144017,94.2399904 372.784,96.16 L372.424,96.232 C371.943998,96.232 371.500002,95.9800025 371.092,95.476 C370.683998,94.9719975 370.48,94.4320029 370.48,93.856 C370.48,93.4719981 370.995995,92.9440034 372.028,92.272 C373.060005,91.5999966 374.079995,90.9520031 375.088,90.328 C378.160015,88.4559906 381.135986,86.8720065 384.016,85.576 L390.64,65.92 C390.880001,65.2479966 391.767992,64.6720024 393.304,64.192 C394.840008,63.7119976 396.351993,63.472 397.84,63.472 C399.232007,63.472 400.515994,63.675998 401.692,64.084 C402.868006,64.492002 403.456,65.1039959 403.456,65.92 L398.704,79.672 C401.872016,78.6159947 404.991985,78.088 408.064,78.088 C413.584028,78.088 417.939984,79.8999819 421.132,83.524 C424.324016,87.1480181 425.92,92.1519681 425.92,98.536 Z M411.952,96.52 C411.952,89.127963 409.024029,85.432 403.168,85.432 C400.527987,85.432 398.320009,85.6719976 396.544,86.152 L384.448,121.72 C383.007993,125.896021 382.288,129.495985 382.288,132.52 C382.288,137.512025 384.591977,140.008 389.2,140.008 C392.848018,140.008 396.471982,137.920021 400.072,133.744 C403.672018,129.567979 406.551989,124.132033 408.712,117.436 C410.872011,110.739967 411.952,103.768036 411.952,96.52 Z" id="Startup" fill="#F0CC02"></path>
                <path d="M48.0544895,229.64 C48.0544895,230.760006 47.3344967,231.32 45.8944895,231.32 L13.0144895,231.32 C12.7744883,233.480011 12.6544895,235.719988 12.6544895,238.04 C12.6544895,244.480032 14.1844742,249.429983 17.2444895,252.89 C20.3045048,256.350017 24.6544613,258.08 30.2944895,258.08 C33.1345037,258.08 35.9944751,257.320008 38.8744895,255.8 C41.7545039,254.279992 44.0744807,252.340012 45.8344895,249.98 L46.1344895,249.86 C46.4944913,249.86 46.8444878,250.079998 47.1844895,250.52 C47.5244912,250.960002 47.6944895,251.479997 47.6944895,252.08 C47.6944895,252.920004 46.4145023,254.669987 43.8544895,257.33 C41.2944767,259.990013 38.5145045,262.019993 35.5144895,263.42 C32.5144745,264.820007 29.3745059,265.52 26.0944895,265.52 C18.8944535,265.52 12.8345141,262.880026 7.91448952,257.6 C2.99446492,252.319974 0.534489521,245.840038 0.534489521,238.16 C0.534489521,230.319961 2.94446542,223.680027 7.76448952,218.24 C12.5845136,212.799973 18.6944525,210.08 26.0944895,210.08 C32.2945205,210.08 37.5044684,212.10998 41.7244895,216.17 C45.9445106,220.23002 48.0544895,224.719975 48.0544895,229.64 Z M37.1344895,224.36 C37.1344895,221.359985 36.1044998,218.87001 34.0444895,216.89 C31.9844792,214.90999 29.3345057,213.92 26.0944895,213.92 C23.0144741,213.92 20.3445008,215.209987 18.0844895,217.79 C15.8244782,220.370013 14.2944935,223.759979 13.4944895,227.96 L30.1744895,227.48 C32.6945021,227.44 34.4844842,227.200002 35.5444895,226.76 C36.6044948,226.319998 37.1344895,225.520006 37.1344895,224.36 Z M144.59449,262.04 C144.59449,263.160006 144.274493,263.72 143.63449,263.72 C141.75448,263.72 139.134506,263.600001 135.77449,263.36 C132.174472,263.119999 129.274501,263 127.07449,263 C124.714478,263 121.594509,263.119999 117.71449,263.36 C113.634469,263.600001 110.234503,263.72 107.51449,263.72 C106.914487,263.72 106.61449,263.160006 106.61449,262.04 C106.61449,261.039995 106.934486,260.5 107.57449,260.42 C113.134517,259.659996 115.91449,258.400009 115.91449,256.64 C115.91449,255.279993 114.9145,253.160014 112.91449,250.28 L97.2544895,227.72 L81.6544895,250.28 C80.3744831,252.000009 79.7344895,253.599993 79.7344895,255.08 C79.7344895,256.560007 80.4744821,257.689996 81.9544895,258.47 C83.4344969,259.250004 85.9744715,259.879998 89.5744895,260.36 C90.0544919,260.44 90.2944895,260.999995 90.2944895,262.04 C90.2944895,263.160006 89.9744927,263.72 89.3344895,263.72 C86.5744757,263.72 83.4145073,263.600001 79.8544895,263.36 C76.7344739,263.119999 74.1344999,263 72.0544895,263 C70.2544805,263 68.0545025,263.119999 65.4544895,263.36 C62.4944747,263.600001 59.8145015,263.72 57.4144895,263.72 C56.7744863,263.72 56.4544895,263.160006 56.4544895,262.04 C56.4544895,261.039995 56.8944851,260.5 57.7744895,260.42 C61.7345093,260.019998 64.8344783,259.170006 67.0744895,257.87 C69.3145007,256.569994 71.9144747,254.020019 74.8744895,250.22 L94.9744895,224.36 L73.7344895,193.82 C70.9344755,189.699979 68.4545003,187.080006 66.2944895,185.96 C64.1344787,184.839994 60.9345107,184.060002 56.6944895,183.62 C56.0544863,183.62 55.7344895,183.060006 55.7344895,181.94 C55.7344895,180.819994 56.0544863,180.26 56.6944895,180.26 C58.5744989,180.26 61.2344723,180.379999 64.6744895,180.62 C68.3945081,180.860001 71.3344787,180.98 73.4944895,180.98 C75.9345017,180.98 79.0344707,180.860001 82.7944895,180.62 C86.7945095,180.379999 90.1344761,180.26 92.8144895,180.26 C93.4544927,180.26 93.7744895,180.819994 93.7744895,181.94 C93.7744895,183.060006 93.4544927,183.62 92.8144895,183.62 C89.5344731,184.060002 87.3144953,184.559997 86.1544895,185.12 C84.9944837,185.680003 84.4144895,186.459995 84.4144895,187.46 C84.4144895,188.820007 85.4144795,190.939986 87.4144895,193.82 L102.17449,215 L116.87449,193.82 C118.314497,191.579989 119.03449,189.940005 119.03449,188.9 C119.03449,187.499993 118.244497,186.390004 116.66449,185.57 C115.084482,184.749996 112.474508,184.100002 108.83449,183.62 C108.354487,183.62 108.11449,183.060006 108.11449,181.94 C108.11449,180.819994 108.434486,180.26 109.07449,180.26 C111.754503,180.26 114.694474,180.379999 117.89449,180.62 C120.934505,180.860001 123.674477,180.98 126.11449,180.98 C127.994499,180.98 130.194477,180.880001 132.71449,180.68 C135.834505,180.399999 138.794476,180.26 141.59449,180.26 C142.234493,180.26 142.55449,180.819994 142.55449,181.94 C142.55449,182.380002 142.414491,182.769998 142.13449,183.11 C141.854488,183.450002 141.554491,183.62 141.23449,183.62 C136.914468,184.100002 133.604501,185.009993 131.30449,186.35 C129.004478,187.690007 126.434504,190.179982 123.59449,193.82 L104.45449,218.36 L126.47449,250.28 C129.434504,254.480021 131.91448,257.089995 133.91449,258.11 C135.9145,259.130005 139.154467,259.899997 143.63449,260.42 C144.274493,260.5 144.59449,261.039995 144.59449,262.04 Z M208.19449,238.16 C208.19449,246.040039 205.534516,252.569974 200.21449,257.75 C194.894463,262.930026 188.094531,265.52 179.81449,265.52 C175.054466,265.52 170.974507,264.600009 167.57449,262.76 L167.57449,281.24 C167.57449,285.120019 168.074485,287.679994 169.07449,288.92 C170.074495,290.160006 172.294472,290.999998 175.73449,291.44 C176.374493,291.44 176.69449,291.999994 176.69449,293.12 C176.69449,294.240006 176.374493,294.8 175.73449,294.8 C174.094481,294.8 171.974503,294.680001 169.37449,294.44 C166.574476,294.199999 164.214499,294.08 162.29449,294.08 C160.29448,294.08 157.874504,294.199999 155.03449,294.44 C152.474477,294.680001 150.374498,294.8 148.73449,294.8 C148.094486,294.8 147.77449,294.240006 147.77449,293.12 C147.77449,291.999994 148.094486,291.44 148.73449,291.44 C152.134507,290.999998 154.344484,290.160006 155.36449,288.92 C156.384495,287.679994 156.89449,285.120019 156.89449,281.24 L156.89449,228.08 C156.89449,224.879984 156.484494,222.780005 155.66449,221.78 C154.844485,220.779995 153.014504,220.120002 150.17449,219.8 C149.534486,219.8 149.21449,219.280005 149.21449,218.24 C149.21449,217.279995 149.534486,216.8 150.17449,216.8 C154.054509,215.839995 157.304476,214.740006 159.92449,213.5 C162.544503,212.259994 164.274485,211.200004 165.11449,210.32 C165.554492,209.839998 165.974488,209.6 166.37449,209.6 C167.494495,209.6 168.05449,209.919997 168.05449,210.56 L167.57449,218.12 C169.774501,215.839989 172.314475,213.930008 175.19449,212.39 C178.074504,210.849992 180.534479,210.08 182.57449,210.08 C190.454529,210.08 196.694467,212.649974 201.29449,217.79 C205.894513,222.930026 208.19449,229.719958 208.19449,238.16 Z M196.13449,238.04 C196.13449,231.359967 194.684504,226.150019 191.78449,222.41 C188.884475,218.669981 184.814516,216.8 179.57449,216.8 C177.374479,216.8 175.384498,217.259995 173.60449,218.18 C171.824481,219.100005 169.814501,220.799988 167.57449,223.28 L167.57449,252.68 C167.57449,255.240013 168.714478,257.379991 170.99449,259.1 C173.274501,260.820009 176.054473,261.68 179.33449,261.68 C184.774517,261.68 188.934475,259.630021 191.81449,255.53 C194.694504,251.42998 196.13449,245.600038 196.13449,238.04 Z M264.77449,229.64 C264.77449,230.760006 264.054497,231.32 262.61449,231.32 L229.73449,231.32 C229.494488,233.480011 229.37449,235.719988 229.37449,238.04 C229.37449,244.480032 230.904474,249.429983 233.96449,252.89 C237.024505,256.350017 241.374461,258.08 247.01449,258.08 C249.854504,258.08 252.714475,257.320008 255.59449,255.8 C258.474504,254.279992 260.794481,252.340012 262.55449,249.98 L262.85449,249.86 C263.214491,249.86 263.564488,250.079998 263.90449,250.52 C264.244491,250.960002 264.41449,251.479997 264.41449,252.08 C264.41449,252.920004 263.134502,254.669987 260.57449,257.33 C258.014477,259.990013 255.234505,262.019993 252.23449,263.42 C249.234475,264.820007 246.094506,265.52 242.81449,265.52 C235.614454,265.52 229.554514,262.880026 224.63449,257.6 C219.714465,252.319974 217.25449,245.840038 217.25449,238.16 C217.25449,230.319961 219.664465,223.680027 224.48449,218.24 C229.304514,212.799973 235.414453,210.08 242.81449,210.08 C249.014521,210.08 254.224468,212.10998 258.44449,216.17 C262.664511,220.23002 264.77449,224.719975 264.77449,229.64 Z M253.85449,224.36 C253.85449,221.359985 252.8245,218.87001 250.76449,216.89 C248.704479,214.90999 246.054506,213.92 242.81449,213.92 C239.734474,213.92 237.064501,215.209987 234.80449,217.79 C232.544478,220.370013 231.014494,223.759979 230.21449,227.96 L246.89449,227.48 C249.414502,227.44 251.204484,227.200002 252.26449,226.76 C253.324495,226.319998 253.85449,225.520006 253.85449,224.36 Z M313.85449,216.08 C313.85449,217.680008 313.364494,219.039994 312.38449,220.16 C311.404485,221.280006 310.214497,221.84 308.81449,221.84 C307.054481,221.84 305.314498,221.260006 303.59449,220.1 C302.234483,219.179995 301.054495,218.72 300.05449,218.72 C297.454477,218.72 294.774503,220.239985 292.01449,223.28 L292.01449,250.28 C292.01449,253.760017 292.614484,256.189993 293.81449,257.57 C295.014496,258.950007 297.57447,259.899997 301.49449,260.42 C302.134493,260.5 302.45449,261.039995 302.45449,262.04 C302.45449,263.160006 302.134493,263.72 301.49449,263.72 C299.854481,263.72 297.534505,263.600001 294.53449,263.36 C291.214473,263.119999 288.574499,263 286.61449,263 C284.61448,263 282.194504,263.119999 279.35449,263.36 C276.794477,263.600001 274.694498,263.72 273.05449,263.72 C272.414486,263.72 272.09449,263.160006 272.09449,262.04 C272.09449,261.039995 272.414486,260.5 273.05449,260.42 C276.534507,259.979998 278.764485,259.160006 279.74449,257.96 C280.724494,256.759994 281.21449,254.20002 281.21449,250.28 L281.21449,228.08 C281.21449,224.879984 280.804494,222.780005 279.98449,221.78 C279.164485,220.779995 277.334504,220.120002 274.49449,219.8 C273.854486,219.8 273.53449,219.280005 273.53449,218.24 C273.53449,217.279995 273.854486,216.8 274.49449,216.8 C278.454509,215.799995 281.724477,214.690006 284.30449,213.47 C286.884502,212.249994 288.574486,211.200004 289.37449,210.32 C289.854492,209.839998 290.334487,209.6 290.81449,209.6 C291.934495,209.6 292.49449,209.919997 292.49449,210.56 L292.01449,218.12 C295.214506,215.159985 297.964478,213.080006 300.26449,211.88 C302.564501,210.679994 304.854478,210.08 307.13449,210.08 C308.974499,210.08 310.554483,210.679994 311.87449,211.88 C313.194496,213.080006 313.85449,214.479992 313.85449,216.08 Z M337.37449,189.5 C337.37449,191.180008 336.764496,192.639994 335.54449,193.88 C334.324483,195.120006 332.854498,195.74 331.13449,195.74 C329.414481,195.74 327.944496,195.120006 326.72449,193.88 C325.504483,192.639994 324.89449,191.180008 324.89449,189.5 C324.89449,187.739991 325.494484,186.260006 326.69449,185.06 C327.894496,183.859994 329.374481,183.26 331.13449,183.26 C332.854498,183.26 334.324483,183.859994 335.54449,185.06 C336.764496,186.260006 337.37449,187.739991 337.37449,189.5 Z M345.77449,262.04 C345.77449,263.160006 345.454493,263.72 344.81449,263.72 C343.174481,263.72 341.074502,263.600001 338.51449,263.36 C335.634475,263.119999 333.214499,263 331.25449,263 C329.25448,263 326.854504,263.119999 324.05449,263.36 C321.534477,263.600001 319.454498,263.72 317.81449,263.72 C317.174486,263.72 316.85449,263.160006 316.85449,262.04 C316.85449,261.039995 317.174486,260.5 317.81449,260.42 C321.214507,259.979998 323.404485,259.160006 324.38449,257.96 C325.364494,256.759994 325.85449,254.20002 325.85449,250.28 L325.85449,228.08 C325.85449,224.879984 325.444494,222.780005 324.62449,221.78 C323.804485,220.779995 322.014503,220.120002 319.25449,219.8 C318.614486,219.8 318.29449,219.280005 318.29449,218.24 C318.29449,217.279995 318.614486,216.8 319.25449,216.8 C323.454511,215.719995 326.894476,214.570006 329.57449,213.35 C332.254503,212.129994 333.934486,211.120004 334.61449,210.32 C335.014492,209.839998 335.454487,209.6 335.93449,209.6 C337.054495,209.6 337.61449,209.919997 337.61449,210.56 C336.974486,219.520045 336.65449,226.479975 336.65449,231.44 L336.65449,250.28 C336.65449,254.20002 337.144485,256.759994 338.12449,257.96 C339.104494,259.160006 341.334472,259.979998 344.81449,260.42 C345.454493,260.5 345.77449,261.039995 345.77449,262.04 Z M399.17449,229.64 C399.17449,230.760006 398.454497,231.32 397.01449,231.32 L364.13449,231.32 C363.894488,233.480011 363.77449,235.719988 363.77449,238.04 C363.77449,244.480032 365.304474,249.429983 368.36449,252.89 C371.424505,256.350017 375.774461,258.08 381.41449,258.08 C384.254504,258.08 387.114475,257.320008 389.99449,255.8 C392.874504,254.279992 395.194481,252.340012 396.95449,249.98 L397.25449,249.86 C397.614491,249.86 397.964488,250.079998 398.30449,250.52 C398.644491,250.960002 398.81449,251.479997 398.81449,252.08 C398.81449,252.920004 397.534502,254.669987 394.97449,257.33 C392.414477,259.990013 389.634505,262.019993 386.63449,263.42 C383.634475,264.820007 380.494506,265.52 377.21449,265.52 C370.014454,265.52 363.954514,262.880026 359.03449,257.6 C354.114465,252.319974 351.65449,245.840038 351.65449,238.16 C351.65449,230.319961 354.064465,223.680027 358.88449,218.24 C363.704514,212.799973 369.814453,210.08 377.21449,210.08 C383.414521,210.08 388.624468,212.10998 392.84449,216.17 C397.064511,220.23002 399.17449,224.719975 399.17449,229.64 Z M388.25449,224.36 C388.25449,221.359985 387.2245,218.87001 385.16449,216.89 C383.104479,214.90999 380.454506,213.92 377.21449,213.92 C374.134474,213.92 371.464501,215.209987 369.20449,217.79 C366.944478,220.370013 365.414494,223.759979 364.61449,227.96 L381.29449,227.48 C383.814502,227.44 385.604484,227.200002 386.66449,226.76 C387.724495,226.319998 388.25449,225.520006 388.25449,224.36 Z M468.71449,262.04 C468.71449,263.160006 468.394493,263.72 467.75449,263.72 C466.154482,263.72 464.194501,263.600001 461.87449,263.36 C459.314477,263.119999 457.054499,263 455.09449,263 C453.09448,263 450.794503,263.119999 448.19449,263.36 C445.834478,263.600001 443.854498,263.72 442.25449,263.72 C441.614486,263.72 441.29449,263.160006 441.29449,262.04 C441.29449,261.039995 441.614486,260.5 442.25449,260.42 C445.014503,260.099998 446.824485,259.320006 447.68449,258.08 C448.544494,256.839994 448.97449,254.24002 448.97449,250.28 L448.97449,230.24 C448.97449,225.759978 448.094498,222.48001 446.33449,220.4 C444.574481,218.31999 441.854508,217.28 438.17449,217.28 C435.854478,217.28 433.804498,217.719996 432.02449,218.6 C430.244481,219.480004 428.3345,221.039989 426.29449,223.28 L426.29449,250.28 C426.29449,254.24002 426.724485,256.839994 427.58449,258.08 C428.444494,259.320006 430.254476,260.099998 433.01449,260.42 C433.654493,260.5 433.97449,261.039995 433.97449,262.04 C433.97449,263.160006 433.654493,263.72 433.01449,263.72 C431.374481,263.72 429.374501,263.600001 427.01449,263.36 C424.414477,263.119999 422.134499,263 420.17449,263 C418.25448,263 416.014502,263.119999 413.45449,263.36 C411.094478,263.600001 409.094498,263.72 407.45449,263.72 C406.814486,263.72 406.49449,263.160006 406.49449,262.04 C406.49449,261.039995 406.814486,260.5 407.45449,260.42 C410.894507,259.979998 413.114485,259.150006 414.11449,257.93 C415.114495,256.709994 415.61449,254.160019 415.61449,250.28 L415.61449,228.08 C415.61449,224.879984 415.204494,222.780005 414.38449,221.78 C413.564485,220.779995 411.734504,220.120002 408.89449,219.8 C408.254486,219.8 407.93449,219.280005 407.93449,218.24 C407.93449,217.279995 408.254486,216.8 408.89449,216.8 C412.854509,215.799995 416.154476,214.670006 418.79449,213.41 C421.434503,212.149994 423.094486,211.120004 423.77449,210.32 C424.174492,209.839998 424.614487,209.6 425.09449,209.6 C426.214495,209.6 426.77449,209.919997 426.77449,210.56 L426.29449,218.12 C432.054518,212.759973 437.414465,210.08 442.37449,210.08 C447.814517,210.08 452.064474,211.639984 455.12449,214.76 C458.184505,217.880016 459.71449,222.079974 459.71449,227.36 L459.71449,250.28 C459.71449,254.20002 460.204485,256.759994 461.18449,257.96 C462.164494,259.160006 464.354473,259.979998 467.75449,260.42 C468.394493,260.5 468.71449,261.039995 468.71449,262.04 Z M519.89449,219.56 C519.89449,222.840016 518.254506,224.48 514.97449,224.48 C513.574483,224.48 512.424494,224.180003 511.52449,223.58 C510.624485,222.979997 509.714494,221.68001 508.79449,219.68 C507.714484,217.319988 506.564496,215.770004 505.34449,215.03 C504.124483,214.289996 502.534499,213.92 500.57449,213.92 C495.734465,213.92 492.044502,215.92998 489.50449,219.95 C486.964477,223.97002 485.69449,229.839961 485.69449,237.56 C485.69449,244.000032 487.294474,249.18998 490.49449,253.13 C493.694506,257.07002 497.974463,259.04 503.33449,259.04 C509.41452,259.04 514.234472,257.140019 517.79449,253.34 L518.09449,253.22 C518.454491,253.22 518.804488,253.449998 519.14449,253.91 C519.484491,254.370002 519.65449,254.879997 519.65449,255.44 C519.65449,256.240004 518.484501,257.61999 516.14449,259.58 C513.804478,261.54001 511.244503,263.019995 508.46449,264.02 C505.684476,265.020005 502.734505,265.52 499.61449,265.52 C492.454454,265.52 486.324515,262.890026 481.22449,257.63 C476.124464,252.369974 473.57449,245.72004 473.57449,237.68 C473.57449,229.71996 476.244463,223.130026 481.58449,217.91 C486.924516,212.689974 493.254453,210.08 500.57449,210.08 C505.974517,210.08 510.544471,211.009991 514.28449,212.87 C518.024508,214.730009 519.89449,216.959987 519.89449,219.56 Z M575.33449,229.64 C575.33449,230.760006 574.614497,231.32 573.17449,231.32 L540.29449,231.32 C540.054488,233.480011 539.93449,235.719988 539.93449,238.04 C539.93449,244.480032 541.464474,249.429983 544.52449,252.89 C547.584505,256.350017 551.934461,258.08 557.57449,258.08 C560.414504,258.08 563.274475,257.320008 566.15449,255.8 C569.034504,254.279992 571.354481,252.340012 573.11449,249.98 L573.41449,249.86 C573.774491,249.86 574.124488,250.079998 574.46449,250.52 C574.804491,250.960002 574.97449,251.479997 574.97449,252.08 C574.97449,252.920004 573.694502,254.669987 571.13449,257.33 C568.574477,259.990013 565.794505,262.019993 562.79449,263.42 C559.794475,264.820007 556.654506,265.52 553.37449,265.52 C546.174454,265.52 540.114514,262.880026 535.19449,257.6 C530.274465,252.319974 527.81449,245.840038 527.81449,238.16 C527.81449,230.319961 530.224465,223.680027 535.04449,218.24 C539.864514,212.799973 545.974453,210.08 553.37449,210.08 C559.574521,210.08 564.784468,212.10998 569.00449,216.17 C573.224511,220.23002 575.33449,224.719975 575.33449,229.64 Z M564.41449,224.36 C564.41449,221.359985 563.3845,218.87001 561.32449,216.89 C559.264479,214.90999 556.614506,213.92 553.37449,213.92 C550.294474,213.92 547.624501,215.209987 545.36449,217.79 C543.104478,220.370013 541.574494,223.759979 540.77449,227.96 L557.45449,227.48 C559.974502,227.44 561.764484,227.200002 562.82449,226.76 C563.884495,226.319998 564.41449,225.520006 564.41449,224.36 Z" id="eXperience" fill="#FFFFFF"></path>
                <g id="Group" transform="translate(509.000000, 98.000000) rotate(17.000000) translate(-509.000000, -98.000000) translate(443.000000, 16.000000)">
                    <path d="M98.4741636,76.8383184 C97.9903508,70.6132405 97.1320076,66.1456739 93.9967735,60.6320032 C92.6949352,58.3427901 90.7996482,56.1217168 89.1020596,54.1227155 C88.7529929,53.7117587 88.4120605,53.3304586 88.0194931,52.9618684 C86.0559489,51.1182116 83.9244142,49.2932668 81.5453144,48.0155583 C79.2443745,46.7805695 76.4628047,45.5180423 73.977252,44.7660337 C71.389844,43.9829562 68.2857324,43.7047483 65.6031887,43.5003291 C65.0698629,43.4600808 64.5842818,43.4565502 64.0537853,43.4777335 C58.7668577,43.6888608 52.77826,44.9778671 48.253479,47.8979907 C46.0964804,49.2897362 43.7272832,51.038068 41.8563991,52.7782795 C40.6146837,53.9331246 39.7535111,55.2429612 38.6822619,56.6269395 C35.4462336,60.808531 34.678782,62.2670041 32.6246998,67.979092 C31.4777664,71.1693032 31.2867877,74.6670259 31.0523083,78.0249385 C30.8114629,81.4753517 31.7154288,85.8246447 32.2519376,88.8111428 C32.4980879,90.1802927 32.8326544,91.5215513 33.1813674,92.8677526 C34.5985002,98.3401157 36.0209381,103.811067 37.4409002,109.282724 C39.17527,115.966068 44.2644993,122.378265 50.1989863,125.845272 C53.3855017,127.870399 56.825948,128.966637 60.520679,129.133986 C64.2104586,129.958724 67.900592,129.793847 71.5907253,128.639002 C78.3078714,126.468768 84.7887697,122.313303 88.1814714,115.902871 C90.9110525,110.745786 92.2365863,105.208108 91.8051158,99.5302665 C92.480261,98.6448028 93.1119054,97.7162663 93.6926222,96.7365368 C96.5551811,90.1283935 99.054173,84.3005033 98.4741636,76.8383184" id="Fill-5" fill="#FFD800"></path>
                    <path d="M72.5530459,134.930807 C76.6109901,134.23564 78.5260823,130.168439 79.8381768,126.698961 C81.9792605,121.037007 84.0340501,115.341159 86.1312794,109.662965 C88.2985343,103.794473 90.6100842,97.9559912 92.5368473,92.0034723 C94.3447792,86.4177783 95.3315026,80.8186682 95.5673967,74.9568846 C95.7668634,70.0031603 96.0604047,64.6854355 94.2860709,59.9566077 C92.627739,55.5370566 89.1314137,52.7532125 84.7799281,51.146103 C75.225687,47.6173115 63.6987064,48.1758455 54.9642591,53.6069012 C46.6117693,58.7999973 41.8832775,67.4657491 41.7640927,77.2312693 C41.6937135,82.9899606 42.3324312,88.6321435 44.459722,94.0120061 C46.5145116,99.2089858 48.69273,104.580375 52.0465286,109.092427 C53.7685201,111.409178 55.6372823,113.578705 56.6381522,116.329715 C57.5979972,118.968453 57.8611234,121.799607 58.4075348,124.536848 C58.7668577,126.334607 59.2061087,128.503075 60.7958298,129.652625 C62.5892615,130.949398 65.2601343,130.432878 67.3099726,130.371093 C71.7283007,130.238697 77.123096,130.615407 80.8800719,127.829798 C84.8778931,124.865896 84.3254695,119.57924 86.0110336,115.387763 C87.1307348,112.603565 88.8417626,110.069332 90.1863943,107.389992 C91.3969872,104.977916 92.4891026,102.50582 93.4613258,99.9885327 C95.5267253,94.6436227 97.0379329,89.0844079 97.9599357,83.429868 C99.611548,73.2992882 100.26901,61.1541726 93.0676974,52.8679556 C89.6010799,48.8784264 84.5755102,46.9592157 79.5248303,45.8481494 C73.9033362,44.6113953 68.1039489,44.4659364 62.3703433,44.5803264 C57.1856246,44.6837718 51.9948936,44.9178477 47.5574676,47.9001091 C43.7651253,50.4488181 40.9573844,54.2748825 39.16466,58.4363499 C37.0504548,63.3448831 36.3809683,68.7438106 36.1889286,74.0421173 C35.9905229,79.5215416 35.5933579,85.5711508 37.130383,90.8927591 C39.7733163,100.042903 47.501235,106.686705 50.2159622,115.796954 C51.0120605,118.46782 50.9848284,121.352285 52.0536019,123.940537 C52.8670298,125.91094 54.2636501,127.590779 55.8961645,128.943336 C59.5976151,132.009271 64.4891461,133.865638 69.2611385,134.269181 C73.9850326,134.668487 78.8001721,133.429261 82.5260255,130.446294 C86.5482496,127.22572 87.8645882,122.765214 88.8148842,117.897635 C89.388174,114.959859 90.1075272,112.092341 91.3142298,109.341331 C92.4371139,106.782383 93.9957125,104.471987 95.2915385,102.003775 C97.8973371,97.0401647 100.644601,92.147519 102.269689,86.7549465 C103.847385,81.5205429 104.741449,75.7946858 104.278148,70.3240879 C103.846324,65.2234924 101.414529,60.7202671 98.3334052,56.7180279 C92.6510809,49.3356335 84.3339574,43.8134895 75.1369173,41.9963119 C70.4360113,41.0674224 65.0688019,40.8548828 60.5525087,42.6710013 C56.0839603,44.4684078 52.1437863,47.9682488 48.7100596,51.2689664 C41.6328832,58.0723495 36.1111225,66.7013835 34.8881513,76.5851774 C34.1924936,82.2054709 34.0588085,88.3641743 34.8092842,93.9887044 C35.4939783,99.1186035 37.7754667,102.82357 41.3018534,106.503116 C43.2211896,108.505295 45.1440624,110.508533 46.2577513,113.087958 C47.4015017,115.737994 47.7512757,118.627402 48.4317258,121.410893 C49.4927187,125.748888 51.5895943,129.734887 56.1016435,131.15417 C58.7940898,132.000798 61.7291499,132.356678 64.5188539,132.730917 C67.3230582,133.106921 70.1608605,133.317696 72.9887603,133.124927 C77.6143357,132.809295 82.2229352,131.350469 85.7800908,128.293713 C87.4599962,126.850068 88.836104,125.06396 89.7121305,123.026828 C90.7349277,120.647586 91.0935433,118.069927 91.8203234,115.59889 C93.3152624,110.513829 96.1095641,105.944935 98.7903395,101.415937 C101.318686,97.1446692 103.855166,92.787609 105.247189,87.9913475 C106.73364,82.8706278 106.811092,77.2302102 106.626833,71.9368463 C106.445403,66.7317463 105.529059,61.4539168 102.861016,56.9062066 C100.540624,52.9505706 97.1153853,49.7285845 93.2590298,47.2819086 C84.2313948,41.5546392 72.6170591,39.8214889 62.1065097,39.3145009 C56.970243,39.0670089 51.6716444,39.4454845 46.8957617,41.49003 C42.4908728,43.3753474 38.8824359,46.6718283 36.2745154,50.6564148 C30.5801664,59.3578252 29.7363234,70.8780323 31.2174695,80.9298807 C31.938591,85.82641 33.3624435,90.6325571 35.5855773,95.0634059 C37.9399206,99.755516 41.213791,103.526857 44.9654619,107.150973 C49.1107612,111.155331 52.2095678,115.461551 53.6588842,121.112914 C54.3683348,123.879811 54.6222657,126.685545 54.6891083,129.532233 C54.735792,131.510757 54.9260634,133.496342 56.5635291,134.834423 C58.4340596,136.362801 61.2941428,136.892384 63.6124123,137.213665 C65.6587139,137.497169 68.7186175,137.949433 70.6075385,136.830247 C72.0490742,135.976558 72.427495,134.209514 72.6124615,132.674428 C72.9735527,129.671336 72.8996369,126.624113 72.7779764,123.608664 C72.5215697,117.261429 72.5187404,111.04659 73.3590468,104.733954 C73.774956,101.608352 74.3415262,98.5028744 75.0562818,95.4312899 C75.4057021,93.928685 75.671304,92.5492964 76.7948955,91.4191651 C77.5906402,90.6184348 78.2604804,89.865014 78.8988444,88.9340062 C79.8286279,87.5786254 82.5253182,84.9292955 83.5541277,87.8356499 C84.145808,89.5077217 83.4367111,92.2597907 81.8296605,92.9860263 C80.6611537,93.5145506 79.1457021,93.4683003 77.8887792,93.5258484 C76.4840246,93.5904576 75.0675991,93.6003432 73.6685031,93.4365253 C67.4337551,92.7057001 62.6437258,87.2679364 64.197373,80.8596226 C64.4339745,79.8848359 66.3777135,74.9939555 67.8892747,77.8720654 C68.4880284,79.0117292 68.3525749,81.1060555 68.3331234,82.3657582 C68.2864397,85.4045085 67.5730988,88.4467893 66.2139669,91.1692017 C64.74626,94.1094495 62.3767092,95.6371214 59.0144227,95.3832744 C55.7370156,95.1361354 52.7626988,93.0149768 51.7989636,89.827237 C51.4385797,88.6339088 51.1765144,86.732704 51.9895887,85.6640044 C53.6203348,83.5209564 55.8102241,86.7761298 56.6561891,88.1752895 C58.1345059,90.6205532 59.0069957,93.3666203 59.9070714,96.0604352 C61.8469201,101.866789 63.6145343,107.6855 64.5722572,113.744288 C65.5529683,119.948536 65.852522,126.24599 65.7906307,132.520849 C65.7761305,133.990973 65.7414714,135.461097 65.6898364,136.930514 C65.649165,138.085713 65.4779915,139.471456 64.2256662,139.877823 C63.4129456,140.141909 62.3208303,140.078712 61.4822922,140.120373 C60.0831962,140.190278 58.5016095,140.355155 57.1163064,140.140497 C56.4744057,140.040935 54.281687,139.652574 55.0042232,138.660134 C55.3023622,138.25059 56.8326676,138.146085 57.3529078,138.060293 C60.3640057,137.562837 63.5307158,137.818096 66.5679849,137.848812 C69.5964123,137.879175 72.6358033,137.841398 75.6617551,137.981208 C77.2811839,138.056056 78.9168813,138.19975 80.4931631,138.593407 C80.8294979,138.677081 81.265566,138.744162 81.5668879,138.91151 C81.8590147,139.073562 82.6940161,139.916659 82.3354005,140.40317 C81.9499064,140.926046 79.7720416,140.947229 79.2401305,140.995598 C76.1667877,141.276277 73.0442856,141.329588 69.9603329,141.399846 C66.8385381,141.470811 63.7114383,141.446803 60.5974241,141.202135 C58.3633267,141.026667 55.3974979,140.022576 53.1920473,140.862143 C51.8205371,141.384665 51.1528189,142.770762 51.683669,144.164272 C52.3036426,145.792918 54.1066232,146.584116 55.6397579,147.114053 C60.2030884,148.690093 65.1264492,149.050916 69.882173,148.32574 C72.3366033,147.951501 74.7121664,147.254569 77.1100104,146.631426 C78.7082194,146.216232 80.514383,145.803863 81.7295735,144.609829 C81.9156009,144.426946 81.9552113,144.036819 81.7295735,143.860998 C79.6468444,142.238001 76.1494582,142.779588 73.6943206,142.972709 C69.9702355,143.266099 66.7900861,144.529685 63.2980047,145.718424 C60.4527754,146.686502 57.3129437,146.142796 54.5632038,147.353424 C52.9770194,148.051769 49.8658345,150.119263 51.1850024,152.189934 C51.7784511,153.120942 52.8306024,153.375495 53.8583508,153.493416 C56.0401059,153.744085 58.2989598,153.707015 60.4920322,153.723255 C64.5687206,153.753265 68.6471773,153.582033 72.7068898,153.210971 C74.4401986,153.052802 76.1805806,152.874156 77.8887792,152.530633 C79.306973,152.245364 81.1944794,151.954799 82.3251442,150.970127 C84.950748,148.684444 79.8792019,148.271722 78.5515461,148.164746 C74.8377173,147.865708 71.0931196,148.514978 67.5186345,149.481644 C64.0933957,150.407709 60.362591,151.409328 57.2068444,153.068337 C55.525878,153.952388 52.783565,156.303033 54.3096265,158.405127 C54.8659404,159.171257 55.8593835,159.494303 56.7382392,159.702253 C58.565269,160.13404 60.5238619,160.280911 62.3926241,160.375177 C66.5184719,160.582421 70.6521002,160.256198 74.7546061,159.833237 C77.5082364,159.54938 80.5299442,159.189969 82.8008227,157.461056 C84.0266232,156.527576 85.9876917,154.132447 83.3840151,153.688656 C79.6776132,153.057039 75.328957,153.635344 71.634226,154.121149 C67.4602799,154.67015 62.9973901,155.468409 59.0897532,157.090347 C56.9256813,157.988874 55.6694657,160.376943 58.2317636,161.731264 C59.8858515,162.60543 62.0287035,162.865985 63.851843,163.160081 C65.805131,163.475359 67.7803461,163.658595 69.7587442,163.697784 C74.1091688,163.784636 78.4334222,163.168554 82.6048927,161.945922 C83.2584643,161.754213 82.9804842,160.731764 82.3226686,160.924532 C76.9954232,162.485744 71.4280397,163.012856 65.9059253,162.382652 C64.460853,162.217422 63.0249759,161.970636 61.606782,161.648649 C60.457373,161.387741 56.5348823,160.879694 58.6292823,158.502923 C59.3231716,157.715256 61.3708879,157.431752 62.3519527,157.145071 C63.8405258,156.710106 65.345721,156.330571 66.8625872,156.007172 C69.6342544,155.415804 72.4444709,155.014027 75.270956,154.80643 C76.5968435,154.70934 77.9262676,154.65391 79.2556917,154.640847 C80.1568284,154.63202 84.4683499,154.318507 82.8545797,156.007878 C81.3341768,157.5991 79.0254563,158.169285 76.9253976,158.506454 C74.122608,158.956246 71.240244,159.145837 68.4070392,159.288472 C65.7397031,159.422633 63.0589277,159.429341 60.3983111,159.170551 C59.0848019,159.042745 57.6291196,158.948832 56.3683064,158.51069 C53.389392,157.475884 56.1642421,154.865743 57.5117031,154.103143 C59.673653,152.880158 62.2741466,152.202291 64.6295508,151.447105 C67.498122,150.527042 70.4299991,149.722075 73.427304,149.358075 C74.7026175,149.203083 75.9899556,149.127529 77.274818,149.158598 C77.9241456,149.174133 81.3879338,149.160363 81.5796199,149.706187 C82.1253239,151.26281 73.4891953,152.080487 72.7068898,152.151804 C67.0684199,152.667266 61.3942298,152.795778 55.7380766,152.539106 C55.1170421,152.510862 54.475495,152.514745 53.8583508,152.434249 C52.6604898,152.481911 52.1749087,151.751086 52.4016076,150.241773 C52.6530629,149.96992 52.9179574,149.712189 53.1966449,149.468228 C54.2056492,148.603242 55.377339,148.058477 56.6812993,147.812397 C57.977479,147.567729 59.2955858,147.66482 60.5970704,147.489351 C61.817566,147.32518 62.9903168,146.954471 64.1453844,146.539631 C67.0107726,145.510121 69.6901333,144.458015 72.7486222,144.119081 C74.1516085,143.963384 75.5531801,143.9422 76.9625324,143.922782 C78.3085787,143.904423 79.8417135,143.723306 80.9794515,144.609829 L80.9794515,143.860998 C79.558782,145.256627 77.122035,145.506237 75.269895,146.012166 C72.385409,146.799833 69.496679,147.470992 66.497252,147.618216 C63.6799622,147.756261 60.9613447,147.382022 58.227166,146.734518 C57.2963215,146.513858 56.3630014,146.273074 55.4689381,145.929904 C54.8411839,145.68912 54.1936246,145.396084 53.6613598,144.9763 C53.4247584,144.789534 52.9635801,144.467194 52.8592492,144.170627 C52.9830317,143.448275 53.1071678,142.725924 53.2309504,142.003572 C53.4477466,141.923075 53.6641891,141.842578 53.8809853,141.762082 C54.9929059,141.399846 56.371843,141.791032 57.4954345,141.93755 C59.0993021,142.147265 60.7109504,142.287781 62.3261352,142.374633 C65.3315745,142.537039 68.3433797,142.514443 71.3505872,142.421236 C74.2294147,142.331913 77.1803896,142.330148 80.0401191,141.969325 C81.2280775,141.81963 84.0347574,141.629686 83.9417437,139.86935 C83.8370591,137.890826 80.6431168,137.493285 79.2411915,137.269801 C76.5547574,136.841191 73.82553,136.865199 71.1125712,136.836249 C68.1117296,136.804474 65.1105343,136.760342 62.1096927,136.746572 C59.6860312,136.735628 56.6827139,136.645245 54.4390676,137.751016 C53.3006222,138.312374 53.5747121,139.681171 54.4857513,140.44589 C56.0740577,141.780087 59.2694147,141.277689 61.1466648,141.196486 C62.6557504,141.130818 65.3839168,141.374426 66.3405787,139.855581 C66.7999887,139.125815 66.7083896,138.0843 66.7384511,137.269448 C66.796452,135.687052 66.8360624,134.103951 66.8516236,132.520849 C66.9690402,120.64335 65.3704775,109.259422 61.6577097,97.9690542 C60.2299669,93.6275284 58.9090307,87.5341404 55.0827366,84.564942 C53.8300577,83.5926267 52.1823357,83.4838855 51.1881853,84.8495049 C50.1841324,86.2292466 50.293061,88.292857 50.7086165,89.8551284 C51.8187688,94.0314242 55.9018232,96.6461546 60.1450875,96.4593881 C65.006557,96.2457894 67.2555083,92.4575019 68.5120775,88.191177 C69.238504,85.725083 69.5281551,83.1107057 69.3410667,80.5461092 C69.2377967,79.131062 69.2678582,76.6420194 67.6756615,75.9983989 C66.1814298,75.3946737 64.7688946,76.9036337 64.1312378,78.0743663 C63.0988917,79.9699223 62.6851045,82.2340684 62.901547,84.374645 C63.3358468,88.672745 66.2896511,92.3229877 70.3490099,93.7659263 C72.6570232,94.5864277 75.1602591,94.6937566 77.5860426,94.5973724 C79.3667423,94.5264082 81.7599887,94.632678 83.2266345,93.4132236 C85.3139612,91.677955 85.7291631,85.3999187 81.9470771,85.4666463 C80.1009494,85.4991274 78.9310279,87.0172668 77.9828539,88.3994799 C76.6230147,90.3818875 74.9752927,91.4191651 74.3507215,93.8259457 C72.8897343,99.4561248 72.0519035,105.29849 71.6621655,111.097077 C71.2596955,117.086314 71.9493409,123.028594 71.7944359,129.013594 C71.7565939,130.474891 71.7325447,132.0068 71.432991,133.440559 C71.0276917,135.378835 70.0547612,136.210634 68.0222525,136.342677 C65.0631433,136.534386 61.9353362,136.104011 59.1664983,135.032134 C57.4873002,134.382512 56.2519508,133.421847 55.8869693,131.562303 C55.6139404,130.170204 55.7656624,128.668305 55.6768927,127.258201 C55.5294147,124.901554 55.1630184,122.54985 54.5331423,120.272994 C53.2122061,115.495445 50.7110922,111.396821 47.2296208,107.886741 C43.4475348,104.07374 39.7609381,100.541065 37.1523102,95.7734009 C32.0577759,86.4615572 30.6710582,75.1147005 32.2855357,64.7048536 C33.9986856,53.6588004 40.415217,43.4621991 51.9482099,41.0148171 C57.2312473,39.8935122 62.7282515,40.2635146 68.0494846,40.8954842 C73.8060785,41.5790001 79.5913191,42.5347218 85.0646279,44.4991236 C89.9777324,46.2619307 94.6259423,48.9179686 98.2849532,52.6744811 C102.092857,56.5838667 104.315637,61.4835735 105.11987,66.8553158 C105.962298,72.4816112 105.905004,78.6862118 104.992197,84.3026217 C104.164622,89.3950969 101.85378,94.0194203 99.3003234,98.4485038 C96.821844,102.748016 94.1060558,106.936316 92.1700974,111.521097 C90.1849797,116.222386 90.0891366,121.921764 86.6723858,125.909175 C83.210366,129.949191 77.8456322,131.79073 72.6570232,132.088003 C69.4740444,132.270532 66.2815168,131.954901 63.1381485,131.468743 C60.3739083,131.041193 57.1463678,130.777813 54.6463149,129.423138 C49.6607092,126.721556 49.4729135,120.182259 48.1572823,115.364108 C46.799565,110.392025 43.4022657,107.447893 40.1397125,103.695971 C36.2709787,99.2471158 35.5654184,93.7729874 35.5243934,88.0785522 C35.4830147,82.3417504 35.4642704,76.4976196 37.1480662,70.958529 C40.1496151,61.0863859 47.4488927,52.8668964 55.6093428,46.7989284 C57.9056851,45.0915511 60.3618837,43.6122478 63.1770515,42.9562703 C65.7404104,42.3589001 68.4491253,42.301705 71.0662411,42.5001223 C75.9991508,42.8743614 80.8174733,44.4133311 85.1473853,46.7819817 C93.8146364,51.5231665 102.647049,60.6701332 103.2649,70.9899509 C103.971522,82.7964861 98.9767206,93.7468613 93.1472719,103.698442 C90.4176908,108.358777 88.7183338,112.909665 87.6764388,118.21009 C86.5938723,123.72023 84.6193645,128.411634 79.4526827,131.215602 C70.1544946,136.262533 54.1380993,131.703172 52.2067385,120.366554 C51.4003839,115.633489 49.9793608,111.598063 47.5015887,107.469077 C45.1267329,103.511322 42.3341995,99.8028255 40.2199943,95.6904328 C39.1109031,93.5336156 38.1963272,91.2539351 37.7231243,88.8683378 C37.1431149,85.9436245 37.2117258,82.9260576 37.1901522,79.9579184 C37.1470052,74.0234054 37.2605314,67.9903898 38.926644,62.2482921 C40.3048738,57.498987 42.8837939,52.9749315 46.7482837,49.8104934 C51.5280567,45.8972242 57.42647,45.706221 63.3400908,45.6225468 C74.2209267,45.4682615 88.3646695,46.1136473 94.477757,56.6647165 C97.4060974,61.7187086 98.0971574,67.6447483 97.9114837,73.3893174 C97.7240416,79.1977895 96.8200757,84.9977883 95.3615641,90.6205532 C93.9072965,96.2256652 91.8684217,101.678257 89.2704038,106.855466 C88.0046392,109.377343 86.4527603,111.766117 85.3012293,114.342718 C84.3456284,116.481176 83.9990374,118.734024 83.5028463,121.003819 C82.903739,123.744591 81.8381485,126.227984 79.2464965,127.60702 C77.0438752,128.778812 74.4589428,129.037602 72.0069882,129.159406 C69.2211745,129.298157 66.3165296,129.539294 63.5300085,129.402661 C60.120331,129.235666 59.6948728,125.776779 59.2096454,123.070254 C58.7346742,120.420571 58.3806563,117.719695 57.3373466,115.215824 C56.3796236,112.917785 54.8210251,111.007754 53.3278544,109.042293 C49.847444,104.460336 47.5868217,99.0476393 45.4825191,93.7306207 C43.2791905,88.1625795 42.6411801,82.225242 42.8484274,76.2638968 C43.0390525,70.7791767 44.6995064,65.6436287 48.0497683,61.2660912 C54.6466686,52.6462366 65.6682629,49.0136467 76.2633381,50.2486355 C81.4738742,50.8558913 87.6725485,52.3323701 91.1692274,56.553857 C94.5647584,60.6535396 94.7097608,66.4454181 94.6100274,71.5036469 C94.4915499,77.5165383 93.9776757,83.3691424 92.2988312,89.1691412 C90.6337797,94.9218306 88.384121,100.509996 86.3109409,106.124288 C84.303896,111.559227 82.2964974,116.993813 80.2894525,122.428752 C78.7987574,126.464532 77.3161967,133.045137 72.2708217,133.909417 C71.5992132,134.024513 71.8842667,135.045197 72.5530459,134.930807" id="Fill-6" stroke="#FFFFFF" fill="#FFFFFF"></path>
                    <path d="M25.1339528,88.6883061 C22.9006012,88.4570129 20.9222937,87.3704891 18.9558343,86.2448394 C16.9694204,85.1074172 14.9861243,83.9623776 13.0012693,82.8211468 C9.03155923,80.5390313 5.06184919,78.2565695 1.09213915,75.9744541 C0.558354701,75.6673328 0.0847457194,76.5634206 0.620089117,76.8712344 C4.95085196,79.3610982 9.281303,81.850962 13.6120658,84.3404796 C17.2166698,86.4131155 20.9989941,89.2990862 25.1339528,89.7270477 C25.7332132,89.789026 25.7294717,88.7499381 25.1339528,88.6883061" id="Fill-7" stroke="#FFFFFF" stroke-width="2" fill="#FFFFFF"></path>
                    <path d="M32.1669994,45.9080759 C26.4880567,41.6675861 21.9593072,35.8606738 18.9617583,29.0312935 C18.6982958,28.4305545 17.8913833,28.9565041 18.1542223,29.5555118 C21.2222357,36.5455508 25.8856785,42.4674172 31.6949494,46.8048562 C32.1959959,47.1788032 32.6646162,46.2792529 32.1669994,45.9080759" id="Fill-8" stroke="#FFFFFF" stroke-width="2" fill="#FFFFFF"></path>
                    <path d="M51.755205,32.6558095 C50.5158398,21.96231 48.6070615,11.3882659 46.0238815,0.994616598 C45.8639333,0.351289246 44.9613013,0.62447831 45.1218731,1.27092189 C47.6822925,11.5724694 49.5913825,22.056143 50.819835,32.6558095 C50.8956,33.3095242 51.8319053,33.3178342 51.755205,32.6558095" id="Fill-9" stroke="#FFFFFF" stroke-width="2" fill="#FFFFFF"></path>
                    <path d="M86.3377025,34.0120599 C86.3981898,25.124586 89.2937833,16.5206886 94.5175127,9.78306377 C94.9081855,9.2789278 94.2496851,8.54107496 93.8558944,9.04867339 C88.4684753,15.997509 85.4650024,24.8399708 85.4023326,34.0120599 C85.3976557,34.6806633 86.3330257,34.6813558 86.3377025,34.0120599" id="Fill-10" stroke="#FFFFFF" stroke-width="2" fill="#FFFFFF"></path>
                    <path d="M106.273242,56.4388391 C110.093605,53.67544 113.913967,50.9120409 117.734642,48.1486417 C121.378843,45.5126616 125.05017,42.2001143 129.192612,40.6046071 C129.757887,40.3868176 129.515003,39.3830469 128.944115,39.6029139 C124.894275,41.1627576 121.344858,44.2987188 117.783281,46.8747982 C113.789251,49.7638851 109.795222,52.6529719 105.801192,55.5417126 C105.298587,55.9052722 105.766895,56.8051687 106.273242,56.4388391" id="Fill-11" stroke="#FFFFFF" stroke-width="2" fill="#FFFFFF"></path>
                    <path d="M107.504189,97.5581213 C115.49256,98.095497 123.494962,98.2405746 131.494869,97.9930078 C132.095377,97.9746567 132.097871,96.9359151 131.494869,96.9542662 C123.494962,97.2018329 115.49256,97.0567553 107.504189,96.5193796 C106.903058,96.4788687 106.90524,97.5176104 107.504189,97.5581213" id="Fill-12" stroke="#FFFFFF" stroke-width="2" fill="#FFFFFF"></path>
                    <path d="M30.5566042,126.456608 C27.0121757,128.691287 23.4674354,130.926313 19.9226951,133.160993 C19.3991997,133.490966 19.8700026,134.388785 20.3947451,134.057773 C23.9394854,131.823093 27.4842257,129.588414 31.028966,127.353388 C31.5521496,127.023414 31.0813467,126.125595 30.5566042,126.456608" id="Fill-13" stroke="#FFFFFF" stroke-width="2" fill="#FFFFFF"></path>
                    <path d="M101.988312,129.861603 C108.771303,134.464613 115.554295,139.06797 122.337286,143.671327 C122.852363,144.020691 123.322854,143.122872 122.809336,142.774547 L102.460362,128.964476 C101.945285,128.615113 101.474794,129.512932 101.988312,129.861603" id="Fill-14" stroke="#FFFFFF" stroke-width="2" fill="#FFFFFF"></path>
                </g>
                <path d="M3.83448952,292 L125.838588,292" id="Line" stroke="#FFD800" stroke-width="6" stroke-linecap="square"></path>
                <path d="M199.83449,292 L566.901241,292" id="Line" stroke="#FFD800" stroke-width="6" stroke-linecap="square"></path>
            </g>
        </g>
    </g>
</svg>